<?xml version="1.0" ?><!-- Uploaded to: SVG Repo, www.svgrepo.com, Generator: SVG Repo Mixer Tools -->
<svg fill="#000000" width="800px" height="800px" viewBox="0 0 512 512" data-name="Layer 1" id="Layer_1" xmlns="http://www.w3.org/2000/svg"><title/><path d="M470.84,169a5.71,5.71,0,0,0-6-3.79,6,6,0,0,0-5.37,4.61C454,193.61,432.06,208.52,420,215.07c1.62-101.94-51.26-147.76-53.91-149.95a6,6,0,0,0-9.7,3.66c-7,45-29.06,71.57-40.17,82.46C293.37,72.39,234.87,19.87,234,19.12a6,6,0,0,0-9.91,4.73c0,.79,1.58,79.84-130.73,171-39.16,27-62.48,61.1-69.31,101.4-12,71,30.57,137.42,39.47,150.34-4.94,24-4.68,40.34-4.63,42a6,6,0,0,0,6,5.78h.18a6,6,0,0,0,5.78-6.15c0-.38-.26-15.07,4.23-37.37,3.83-.35,7.61-.8,11.38-1.26,7.15,1.4,14.41,2.25,21.66,3.17.07,0,.11.09.19.13,1.07.45,68.67,28.37,150.94,28.37,48.9,0,103-9.87,151.32-41.24C541.26,355.23,471.56,170.82,470.84,169ZM366.06,82.14c17.4,20.31,57.2,80.5,36.17,188.53-10,51.52-39.62,95.08-85.59,126-51.85,34.82-122.48,51.21-191.19,46,76.28-18.1,135.88-60.07,169.89-119.69.06-.06.15-.08.21-.15,3.21-3.47,78.75-85.86,81.88-151.35a6,6,0,0,0-5.68-6.24,6.12,6.12,0,0,0-6.24,5.68c-1.76,36.92-29.79,81.3-51.91,110.92,1.36-4,2.79-8,3.94-12.17,10.58-37.89,9.39-73.45,2.09-105.25C328.44,157,355.27,131.2,366.06,82.14Zm-119.82,66.4c-.26-3.28-2.78-5.57-6.42-5.46a6,6,0,0,0-5.47,6.42c2.66,33.19-2.14,72.53-90.43,155.33-45.56,42.75-66.64,89.79-76.47,125.64-13.7-22.86-41-77-31.6-132.28,6.28-37,27.92-68.41,64.31-93.5,107.58-74.14,130.11-140.52,134.73-168,26.52,27.55,102.23,118.43,71.17,229.74C267.44,404.75,130.72,432.92,77.87,438.64a257.64,257.64,0,0,1,74.22-125.11C235.24,235.54,249.75,192.58,246.24,148.54ZM404.07,430c-85.75,55.62-190.92,40.49-248.48,25.52,61.14-1,121.52-18,167.71-49,3.68-2.48,7.06-5.17,10.54-7.8.14-.06.29,0,.42-.11,4.1-2.32,100.71-58,120.78-137.4a6,6,0,0,0-11.55-2.92c-8.93,35.31-35.05,66.13-60.17,88.94a201.27,201.27,0,0,0,30.61-74.3,338.44,338.44,0,0,0,5.6-44.25c8.44-3.85,32.6-16.45,45.27-39.73C477.89,234,505,364.54,404.07,430Z"/></svg>